<?xml version="1.0" encoding="UTF-8"?>
<svg version="1.1" xmlns="http://www.w3.org/2000/svg" width="293" height="340">
<path d="M0 0 C30.10451024 -0.64132415 60.77674174 6.77775696 85.0546875 25.12109375 C84.45455248 29.06312223 83.23450646 32.01795238 81.32421875 35.5078125 C80.76798828 36.52939453 80.21175781 37.55097656 79.63867188 38.60351562 C78.76178711 40.1900293 78.76178711 40.1900293 77.8671875 41.80859375 C77.01930664 43.36610352 77.01930664 43.36610352 76.15429688 44.95507812 C74.47531411 48.02263541 72.77201863 51.07485767 71.0546875 54.12109375 C70.23363525 55.58796631 70.23363525 55.58796631 69.39599609 57.08447266 C68.87473145 57.98987793 68.3534668 58.8952832 67.81640625 59.828125 C67.35580811 60.63354736 66.89520996 61.43896973 66.4206543 62.26879883 C65.0546875 64.12109375 65.0546875 64.12109375 62.0546875 65.12109375 C58.8671875 63.68359375 58.8671875 63.68359375 56.0546875 62.12109375 C56.0546875 61.46109375 56.0546875 60.80109375 56.0546875 60.12109375 C55.33667969 59.84007812 54.61867187 59.5590625 53.87890625 59.26953125 C51.1681755 58.1672424 48.52152406 56.97720406 45.8671875 55.74609375 C25.81350427 46.61858063 3.70424894 40.57381608 -17.9453125 48.12109375 C-24.42197843 51.14146199 -29.17597477 55.41077539 -31.9453125 62.12109375 C-32.53134539 68.30891165 -32.50325161 74.36573076 -29.9453125 80.12109375 C-29.2853125 80.12109375 -28.6253125 80.12109375 -27.9453125 80.12109375 C-27.9453125 80.78109375 -27.9453125 81.44109375 -27.9453125 82.12109375 C-26.83736328 82.54455078 -26.83736328 82.54455078 -25.70703125 82.9765625 C-23.25915681 83.99102815 -21.06568754 85.14303339 -18.7578125 86.43359375 C-8.42992538 91.6515696 3.54778951 94.23888838 14.96484375 95.6640625 C15.99931641 95.89029297 15.99931641 95.89029297 17.0546875 96.12109375 C17.3846875 96.78109375 17.7146875 97.44109375 18.0546875 98.12109375 C19.94895265 98.37661893 21.8450238 98.6229619 23.74658203 98.81689453 C27.60761994 99.32576413 31.26862166 100.44509499 34.9921875 101.55859375 C35.75853516 101.77580078 36.52488281 101.99300781 37.31445312 102.21679688 C39.24805299 102.78711464 41.15471109 103.44717947 43.0546875 104.12109375 C43.3846875 104.78109375 43.7146875 105.44109375 44.0546875 106.12109375 C45.72111984 106.45559659 47.3878459 106.78863627 49.0546875 107.12109375 C57.5858562 110.76847747 65.00271448 115.07860562 72.0546875 121.12109375 C72.67472656 121.60964844 73.29476562 122.09820312 73.93359375 122.6015625 C75.35029449 123.72243246 76.71022449 124.91452438 78.0546875 126.12109375 C78.0546875 126.78109375 78.0546875 127.44109375 78.0546875 128.12109375 C78.7146875 128.12109375 79.3746875 128.12109375 80.0546875 128.12109375 C84.68765096 134.18653337 87.29786149 140.76802064 89.0546875 148.12109375 C89.36212891 149.219375 89.36212891 149.219375 89.67578125 150.33984375 C94.22322621 168.65507035 90.73999308 188.16114894 81.25097656 204.24755859 C70.11458049 221.68851849 50.52308617 231.08495709 31.0546875 236.12109375 C-5.84220837 243.91817363 -46.96319607 237.51470463 -78.9453125 217.12109375 C-83.80968554 213.69721887 -88.41020031 209.96623642 -92.9453125 206.12109375 C-92.38947325 202.26411163 -91.33250201 199.84052986 -89.0703125 196.68359375 C-86.683417 193.25243146 -84.69490074 189.91186827 -82.9453125 186.12109375 C-82.2853125 186.12109375 -81.6253125 186.12109375 -80.9453125 186.12109375 C-80.68878906 185.41210938 -80.43226562 184.703125 -80.16796875 183.97265625 C-78.84834001 180.89492787 -77.22583436 178.28948388 -75.3828125 175.49609375 C-73.50781303 172.65046046 -72.0243712 170.35826986 -70.9453125 167.12109375 C-67.47666711 167.74105526 -65.37355309 169.08355515 -62.5703125 171.18359375 C-58.39842762 174.179428 -54.14299283 176.87597116 -49.6953125 179.43359375 C-48.55578125 180.08972656 -47.41625 180.74585938 -46.2421875 181.421875 C-43.16525507 183.00773472 -40.22858733 184.0570695 -36.9453125 185.12109375 C-36.00300781 185.61351562 -35.06070313 186.1059375 -34.08984375 186.61328125 C-30.33410716 188.41416861 -26.68218678 189.34473353 -22.6328125 190.24609375 C-21.87589111 190.41786133 -21.11896973 190.58962891 -20.33911133 190.76660156 C-15.22217539 191.90088414 -10.19352904 192.90241806 -4.9453125 193.12109375 C-4.0275 193.16105469 -3.1096875 193.20101562 -2.1640625 193.2421875 C10.51314853 193.51990991 21.55761103 191.76063274 32.0546875 184.12109375 C36.42624078 178.27524147 37.54020856 174.40390971 37.0546875 167.12109375 C35.69193053 160.19828836 31.81760203 156.0364497 26.0546875 152.12109375 C25.3946875 152.12109375 24.7346875 152.12109375 24.0546875 152.12109375 C24.0546875 151.46109375 24.0546875 150.80109375 24.0546875 150.12109375 C17.62596334 147.87221772 11.15484043 146.04169814 4.5546875 144.37109375 C-62.44683809 127.08602388 -62.44683809 127.08602388 -76.9453125 106.12109375 C-86.2299003 89.59831709 -89.93491428 71.63071457 -85.828125 52.83203125 C-82.71344776 43.26749142 -77.60908545 34.6310601 -70.9453125 27.12109375 C-70.44902344 26.53199219 -69.95273438 25.94289063 -69.44140625 25.3359375 C-53.71386243 8.03169756 -28.23977205 1.4978491 -5.703125 0.2109375 C-3.80179217 0.14899606 -1.90073573 0.07814696 0 0 Z " fill="#141350" transform="translate(126.9453125,21.87890625)"/>
<path d="M0 0 C5.84577924 4.46496586 10.18736167 9.79476264 12 17 C13.01981636 24.94606911 11.95305614 31.07524082 8 38 C7.46375 39.051875 6.9275 40.10375 6.375 41.1875 C2.37288903 45.92684193 -3.13353752 49.04451251 -9 51 C-17.14083905 51.63099261 -24.21122791 51.89280872 -31 47 C-31.92039063 46.38125 -31.92039063 46.38125 -32.859375 45.75 C-37.997975 41.88507008 -41.09506042 37.12783662 -43 31 C-44.15667831 22.73076469 -43.19514721 15.27340458 -39 8 C-36.5625 5.125 -36.5625 5.125 -34 3 C-33.2575 2.29875 -32.515 1.5975 -31.75 0.875 C-21.94805626 -5.80814346 -10.18884194 -5.91019426 0 0 Z " fill="#279C7A" transform="translate(271,208)"/>
<path d="M0 0 C1.875 0.1875 1.875 0.1875 4 1 C5.125 3.4375 5.125 3.4375 6 6 C6.66 6.66 7.32 7.32 8 8 C1.375 9 1.375 9 -2 9 C-2.66 11.31 -3.32 13.62 -4 16 C-4.66 16 -5.32 16 -6 16 C-6 16.66 -6 17.32 -6 18 C-6.99 18 -7.98 18 -9 18 C-9.33 18.99 -9.66 19.98 -10 21 C-10.66 21 -11.32 21 -12 21 C-12 20.34 -12 19.68 -12 19 C-11.34 19 -10.68 19 -10 19 C-9.74347656 18.29101562 -9.48695312 17.58203125 -9.22265625 16.8515625 C-7.90302751 13.77383412 -6.28052186 11.16839013 -4.4375 8.375 C-2.56250053 5.52936671 -1.0790587 3.23717611 0 0 Z " fill="#1A184B" transform="translate(56,189)"/>
<path d="M0 0 C8.17724318 1.24543183 16.27716653 2.97699485 24 6 C24.33 6.66 24.66 7.32 25 8 C25.66 8.33 26.32 8.66 27 9 C25.68 9.33 24.36 9.66 23 10 C23 9.34 23 8.68 23 8 C21.06302033 7.66365624 19.12539514 7.33102835 17.1875 7 C16.10855469 6.814375 15.02960938 6.62875 13.91796875 6.4375 C10.99729102 5.92586214 10.99729102 5.92586214 8 6 C6.43141704 5.69657808 4.86886477 5.36089618 3.3125 5 C2.10013672 4.7215625 2.10013672 4.7215625 0.86328125 4.4375 C-0.05904297 4.2209375 -0.05904297 4.2209375 -1 4 C-0.67 2.68 -0.34 1.36 0 0 Z " fill="#171743" transform="translate(146,120)"/>
<path d="M0 0 C2.625 2.75 2.625 2.75 4 5 C-0.51720311 5.36625971 -0.51720311 5.36625971 -2.8125 3.625 C-4 2 -4 2 -4 0 C-11.68931285 -1.06059488 -19.24506486 -1.09928082 -27 -1 C-20.40152442 -7.59847558 -7.12767339 -4.07109812 0 0 Z " fill="#509F86" transform="translate(271,208)"/>
<path d="M0 0 C1.08067609 3.50652942 0.61373484 5.30929985 -0.51953125 8.78515625 C-1.52763589 13.43227277 -1.13979519 18.27026288 -1 23 C-1.99 23 -2.98 23 -4 23 C-4.48661855 14.37603795 -3.92480024 7.76199333 0 0 Z " fill="#44977E" transform="translate(232,216)"/>
<path d="M0 0 C3.4299177 1.17488893 6.90227005 2.17301161 10.390625 3.15625 C11.60878906 3.50042969 12.82695312 3.84460938 14.08203125 4.19921875 C14.98824219 4.45316406 15.89445312 4.70710938 16.828125 4.96875 C14.6588863 6.2806866 13.37846235 7.02787218 10.81689453 6.75268555 C9.7744458 6.43231323 9.7744458 6.43231323 8.7109375 6.10546875 C7.93878906 5.87794922 7.16664063 5.65042969 6.37109375 5.41601562 C5.57316406 5.16529297 4.77523437 4.91457031 3.953125 4.65625 C2.37324833 4.17816334 0.79253191 3.70284179 -0.7890625 3.23046875 C-1.91006348 2.89474854 -1.91006348 2.89474854 -3.05371094 2.55224609 C-5.73340744 1.81406322 -8.41968451 1.3448532 -11.171875 0.96875 C-7.26105132 -2.94207368 -4.82701187 -1.72621617 0 0 Z " fill="#13143B" transform="translate(151.171875,66.03125)"/>
<path d="M0 0 C0.33 0.99 0.66 1.98 1 3 C-1.32632748 6.14738423 -3.69377248 8.71617937 -6.5625 11.375 C-9.56205831 14.60529356 -11.2238346 18.00114718 -13 22 C-13.66 21.01 -14.32 20.02 -15 19 C-10.72988548 11.74080531 -6.25003586 5.66561692 0 0 Z " fill="#13133C" transform="translate(62,43)"/>
<path d="M0 0 C0.66 0 1.32 0 2 0 C-1.79215135 8.22240509 -9.0011654 14.87472691 -17 19 C-17.99 18.67 -18.98 18.34 -20 18 C-19.40832031 17.63648438 -18.81664062 17.27296875 -18.20703125 16.8984375 C-13.1867113 13.70443297 -9.5805673 10.73898614 -6 6 C-4.3125 4.125 -4.3125 4.125 -3 3 C-2.34 3 -1.68 3 -1 3 C-0.67 2.01 -0.34 1.02 0 0 Z " fill="#121039" transform="translate(204,227)"/>
<path d="M0 0 C-1 3 -1 3 -3.875 4.6875 C-7 6 -7 6 -10 6 C-10 6.66 -10 7.32 -10 8 C-11.98 8 -13.96 8 -16 8 C-16 7.34 -16 6.68 -16 6 C-17.32 5.67 -18.64 5.34 -20 5 C-18.80503906 4.83564453 -18.80503906 4.83564453 -17.5859375 4.66796875 C-11.86912199 3.81253285 -5.27517876 0 0 0 Z " fill="#343355" transform="translate(154,210)"/>
<path d="M0 0 C6.68109279 -0.37817506 12.72164492 0.59458452 19 3 C19.33 3.66 19.66 4.32 20 5 C19.08476562 4.91621094 18.16953125 4.83242188 17.2265625 4.74609375 C16.03804687 4.64425781 14.84953125 4.54242187 13.625 4.4375 C12.44164062 4.33308594 11.25828125 4.22867187 10.0390625 4.12109375 C7.08101369 3.75846404 7.08101369 3.75846404 5 5 C1.125 2.25 1.125 2.25 0 0 Z " fill="#15133D" transform="translate(154,25)"/>
<path d="M0 0 C0.66 0 1.32 0 2 0 C0.75231934 5.55785021 -1.14636401 9.74374532 -5 14 C-7.3125 15.4375 -7.3125 15.4375 -9 16 C-9.33 14.68 -9.66 13.36 -10 12 C-8.35 11.67 -6.7 11.34 -5 11 C-5 9.68 -5 8.36 -5 7 C-4.01 6.34 -3.02 5.68 -2 5 C-0.79549696 2.44816596 -0.79549696 2.44816596 0 0 Z " fill="#429882" transform="translate(280,238)"/>
<path d="M0 0 C2.31 0 4.62 0 7 0 C7.33 0.66 7.66 1.32 8 2 C7.14277344 2.24234375 6.28554687 2.4846875 5.40234375 2.734375 C-0.89894691 4.5814275 -6.487182 6.41025805 -12 10 C-11.67 8.68 -11.34 7.36 -11 6 C-10.01 6 -9.02 6 -8 6 C-8 5.34 -8 4.68 -8 4 C-5.36 3.01 -2.72 2.02 0 1 C0 0.67 0 0.34 0 0 Z " fill="#12123C" transform="translate(112,65)"/>
<path d="M0 0 C0.66 0.33 1.32 0.66 2 1 C1.2884375 2.0828125 1.2884375 2.0828125 0.5625 3.1875 C-0.94152903 5.89475226 -1.56599182 7.96194275 -2 11 C-2.66 11 -3.32 11 -4 11 C-4 11.66 -4 12.32 -4 13 C-4.99 13 -5.98 13 -7 13 C-7.33 13.99 -7.66 14.98 -8 16 C-8.66 16 -9.32 16 -10 16 C-10 15.34 -10 14.68 -10 14 C-9.34 14 -8.68 14 -8 14 C-7.73445313 13.27425781 -7.46890625 12.54851562 -7.1953125 11.80078125 C-5.99927052 8.99829072 -4.59670893 6.69520648 -2.875 4.1875 C-2.33617187 3.39730469 -1.79734375 2.60710937 -1.2421875 1.79296875 C-0.83226562 1.20128906 -0.42234375 0.60960937 0 0 Z " fill="#16153F" transform="translate(54,194)"/>
<path d="M0 0 C0.99 0 1.98 0 3 0 C3 0.66 3 1.32 3 2 C3.639375 2.12375 4.27875 2.2475 4.9375 2.375 C5.618125 2.58125 6.29875 2.7875 7 3 C7.33 3.66 7.66 4.32 8 5 C8.99 5.66 9.98 6.32 11 7 C12.1875 9.125 12.1875 9.125 13 11 C12.01 12.485 12.01 12.485 11 14 C10.2265625 12.700625 10.2265625 12.700625 9.4375 11.375 C7.24181168 8.02994415 4.52520386 5.74658789 1.390625 3.296875 C0.93171875 2.86890625 0.4728125 2.4409375 0 2 C0 1.34 0 0.68 0 0 Z " fill="#14123C" transform="translate(152,171)"/>
<path d="M0 0 C1.99028232 3.69623859 4 7.74300779 4 12 C2.35 12.33 0.7 12.66 -1 13 C-2.20577428 8.05632546 -1.6290678 4.79137588 0 0 Z " fill="#272651" transform="translate(212,160)"/>
<path d="M0 0 C0.66 0.33 1.32 0.66 2 1 C3.22419163 5.88756205 3.42493072 9.92843559 1.5625 14.625 C0.7890625 15.800625 0.7890625 15.800625 0 17 C-0.66 17 -1.32 17 -2 17 C-1.34 11.39 -0.68 5.78 0 0 Z " fill="#110F3D" transform="translate(165,185)"/>
<path d="M0 0 C2.10388569 -0.05402274 4.20816714 -0.09280256 6.3125 -0.125 C8.07013672 -0.15980469 8.07013672 -0.15980469 9.86328125 -0.1953125 C13 0 13 0 16 2 C11.45476721 5.03015519 7.10125677 3.39398564 2 2.4375 C1.01 2.2209375 1.01 2.2209375 0 2 C0 1.34 0 0.68 0 0 Z " fill="#2D2C57" transform="translate(106,214)"/>
<path d="M0 0 C0 0.66 0 1.32 0 2 C-7.41430591 3.83717315 -14.37685526 4.23576736 -22 4 C-22 3.67 -22 3.34 -22 3 C-21.3709375 2.95101563 -20.741875 2.90203125 -20.09375 2.8515625 C-15.84192728 2.48016835 -11.75617053 2.03654725 -7.625 0.9375 C-4 0 -4 0 0 0 Z " fill="#16153D" transform="translate(156,256)"/>
<path d="M0 0 C0 0.99 0 1.98 0 3 C-5.61 3 -11.22 3 -17 3 C-12.64547174 -1.35452826 -5.77102003 -0.10085278 0 0 Z " fill="#5AA493" transform="translate(261,204)"/>
<path d="M0 0 C1.7726041 0.61996001 3.54302667 1.24615993 5.3125 1.875 C6.79169922 2.39707031 6.79169922 2.39707031 8.30078125 2.9296875 C11 4 11 4 14 6 C14 6.66 14 7.32 14 8 C9 6.33333333 4 4.66666667 -1 3 C-0.67 2.01 -0.34 1.02 0 0 Z " fill="#12123D" transform="translate(137,164)"/>
<path d="M0 0 C3.35620271 1.38877354 5.07298728 2.91677965 7 6 C7 6.66 7 7.32 7 8 C7.99 8.33 8.98 8.66 10 9 C9.67 9.66 9.34 10.32 9 11 C1.33257403 5.03416856 1.33257403 5.03416856 0 0 Z " fill="#59A08E" transform="translate(231,244)"/>
<path d="M0 0 C2.64 0.99 5.28 1.98 8 3 C8 3.66 8 4.32 8 5 C8.66 5.33 9.32 5.66 10 6 C8.1128125 5.7525 8.1128125 5.7525 6.1875 5.5 C3.73543415 5.17841759 1.48349306 5 -1 5 C-0.67 3.35 -0.34 1.7 0 0 Z " fill="#12103F" transform="translate(90,208)"/>
<path d="M0 0 C0.66 0.99 1.32 1.98 2 3 C0.47793991 5.62901288 -0.84365964 7.84365964 -3 10 C-3.99 9.67 -4.98 9.34 -6 9 C-4.02 6.03 -2.04 3.06 0 0 Z " fill="#2A2951" transform="translate(41,214)"/>
<path d="M0 0 C1.98260599 0.42164019 3.96107245 0.86278778 5.9375 1.3125 C7.03964844 1.55613281 8.14179687 1.79976563 9.27734375 2.05078125 C10.62505859 2.52064453 10.62505859 2.52064453 12 3 C12.33 3.99 12.66 4.98 13 6 C7.57689095 5.56615128 4.29855944 4.35497322 0 1 C0 0.67 0 0.34 0 0 Z " fill="#151340" transform="translate(112,111)"/>
<path d="M0 0 C4.24846075 0.47205119 6.26819288 2.88877522 9 6 C9 6.66 9 7.32 9 8 C6.5625 7.1875 6.5625 7.1875 4 6 C3.67 5.01 3.34 4.02 3 3 C2.34 3 1.68 3 1 3 C0.67 2.01 0.34 1.02 0 0 Z " fill="#12123E" transform="translate(194,141)"/>
<path d="M0 0 C0.66 0 1.32 0 2 0 C2 0.66 2 1.32 2 2 C4.475 2.99 4.475 2.99 7 4 C6.67 5.32 6.34 6.64 6 8 C4 8 4 8 1.875 6.25 C0 4 0 4 0 0 Z " fill="#272753" transform="translate(97,102)"/>
<path d="M0 0 C3.94120709 0.56302958 6.7508723 1.6791945 10 4 C10 4.66 10 5.32 10 6 C8.35 5.67 6.7 5.34 5 5 C5 4.34 5 3.68 5 3 C4.360625 2.87625 3.72125 2.7525 3.0625 2.625 C2.381875 2.41875 1.70125 2.2125 1 2 C0.67 1.34 0.34 0.68 0 0 Z " fill="#12113C" transform="translate(189,35)"/>
<path d="M0 0 C4.03520597 1.58962659 8.01811282 3.28232318 12 5 C11.01 5.66 10.02 6.32 9 7 C7.68176698 6.40844669 6.37052949 5.80128537 5.0625 5.1875 C4.33160156 4.85105469 3.60070313 4.51460937 2.84765625 4.16796875 C1 3 1 3 0 0 Z " fill="#17153D" transform="translate(58,242)"/>
<path d="M0 0 C0.33 0.66 0.66 1.32 1 2 C0.67 2.66 0.34 3.32 0 4 C-0.99 4 -1.98 4 -3 4 C-3 4.66 -3 5.32 -3 6 C-4.65 6.66 -6.3 7.32 -8 8 C-6.49776416 3.79373966 -3.71449966 2.26099979 0 0 Z " fill="#141339" transform="translate(72,36)"/>
<path d="M0 0 C0.99 0.33 1.98 0.66 3 1 C3.99 0.67 4.98 0.34 6 0 C6.66 1.65 7.32 3.3 8 5 C2.25 4.125 2.25 4.125 0 3 C0 2.01 0 1.02 0 0 Z " fill="#11123E" transform="translate(174,75)"/>
<path d="M0 0 C0.721875 0.144375 1.44375 0.28875 2.1875 0.4375 C3.5796875 0.7159375 3.5796875 0.7159375 5 1 C6.66666667 1.33333333 8.33333333 1.66666667 10 2 C10 2.99 10 3.98 10 5 C6.7 4.01 3.4 3.02 0 2 C0 1.34 0 0.68 0 0 Z " fill="#13113D" transform="translate(73,249)"/>
<path d="M0 0 C1.43655854 -0.08131463 2.8744483 -0.13933559 4.3125 -0.1875 C5.51326172 -0.23970703 5.51326172 -0.23970703 6.73828125 -0.29296875 C9.47851584 0.06198392 10.29171079 0.89366282 12 3 C10.56163249 2.88541307 9.12429034 2.75790884 7.6875 2.625 C6.88699219 2.55539063 6.08648437 2.48578125 5.26171875 2.4140625 C3 2 3 2 0 0 Z " fill="#15153D" transform="translate(108,159)"/>
<path d="M0 0 C1.98 0.66 3.96 1.32 6 2 C6 2.66 6 3.32 6 4 C4.35 4.66 2.7 5.32 1 6 C1 5.01 1 4.02 1 3 C0.34 2.67 -0.32 2.34 -1 2 C-0.67 1.34 -0.34 0.68 0 0 Z " fill="#2A2956" transform="translate(175,129)"/>
<path d="M0 0 C3.63 0.66 7.26 1.32 11 2 C11 2.33 11 2.66 11 3 C6.28400182 3.92470553 3.32734391 4.22923777 -1 2 C-0.67 1.34 -0.34 0.68 0 0 Z " fill="#1B1A3F" transform="translate(146,120)"/>
<path d="M0 0 C1.32 1.32 2.64 2.64 4 4 C3.67 4.66 3.34 5.32 3 6 C1.68 5.67 0.36 5.34 -1 5 C-1.33 3.68 -1.66 2.36 -2 1 C-1.34 0.67 -0.68 0.34 0 0 Z " fill="#40997E" transform="translate(242,251)"/>
<path d="M0 0 C-3.42346555 3.14958831 -6.44262737 3.56179109 -11 4 C-7.70333541 0.70333541 -4.58106555 -1.52702185 0 0 Z " fill="#0F0D3A" transform="translate(184,247)"/>
<path d="M0 0 C2.31 0.33 4.62 0.66 7 1 C7 1.99 7 2.98 7 4 C4.36 3.34 1.72 2.68 -1 2 C-0.67 1.34 -0.34 0.68 0 0 Z " fill="#13133E" transform="translate(99,155)"/>
<path d="M0 0 C1.31602523 0.61754259 2.62773556 1.24428742 3.9375 1.875 C4.66839844 2.22304687 5.39929688 2.57109375 6.15234375 2.9296875 C8 4 8 4 9 6 C7.51793505 5.745504 6.03931385 5.47088238 4.5625 5.1875 C3.73878906 5.03667969 2.91507813 4.88585937 2.06640625 4.73046875 C1.38449219 4.48941406 0.70257813 4.24835938 0 4 C-0.33 3.01 -0.66 2.02 -1 1 C-0.67 0.67 -0.34 0.34 0 0 Z " fill="#10103C" transform="translate(185,134)"/>
<path d="M0 0 C5.75 1.875 5.75 1.875 8 3 C8 3.66 8 4.32 8 5 C5.23723823 4.47731534 2.6739124 3.89130413 0 3 C0 2.01 0 1.02 0 0 Z " fill="#14143F" transform="translate(103,107)"/>
<path d="M0 0 C0.66 0 1.32 0 2 0 C0.14285714 7.57142857 0.14285714 7.57142857 -3 10 C-2.39009109 6.44219804 -1.4216319 3.3171411 0 0 Z " fill="#60A494" transform="translate(280,238)"/>
<path d="M0 0 C6.75 1.625 6.75 1.625 9 5 C5.7 4.34 2.4 3.68 -1 3 C-0.67 2.01 -0.34 1.02 0 0 Z " fill="#131240" transform="translate(127,115)"/>
<path d="M0 0 C3.3 0.99 6.6 1.98 10 3 C10 3.33 10 3.66 10 4 C3.375 4.25 3.375 4.25 0 2 C0 1.34 0 0.68 0 0 Z " fill="#484767" transform="translate(173,28)"/>
<path d="M0 0 C1.0326802 2.78823655 1.04509293 3.8677274 0.0625 6.75 C-0.288125 7.4925 -0.63875 8.235 -1 9 C-1.66 9 -2.32 9 -3 9 C-2.44271087 5.65626525 -1.64826111 2.96687001 0 0 Z " fill="#4E9888" transform="translate(232,216)"/>
<path d="M0 0 C5.75 1.75 5.75 1.75 8 4 C5.69 4 3.38 4 1 4 C1 3.34 1 2.68 1 2 C0.34 1.67 -0.32 1.34 -1 1 C-0.67 0.67 -0.34 0.34 0 0 Z " fill="#13123C" transform="translate(74,201)"/>
<path d="M0 0 C4.75 0.75 4.75 0.75 7 3 C6.34 3.66 5.68 4.32 5 5 C3.0625 4.1875 3.0625 4.1875 1 3 C0.67 2.01 0.34 1.02 0 0 Z " fill="#141042" transform="translate(48,123)"/>
<path d="M0 0 C1.65 0 3.3 0 5 0 C5 1.32 5 2.64 5 4 C3.68 4.33 2.36 4.66 1 5 C0.67 3.35 0.34 1.7 0 0 Z " fill="#141041" transform="translate(166,250)"/>
<path d="M0 0 C0.99 0.33 1.98 0.66 3 1 C2.67 2.65 2.34 4.3 2 6 C1.01 6 0.02 6 -1 6 C-0.67 4.02 -0.34 2.04 0 0 Z " fill="#0F103E" transform="translate(210,213)"/>
<path d="M0 0 C2.5 1.3125 2.5 1.3125 5 3 C5 3.99 5 4.98 5 6 C2.5 4.6875 2.5 4.6875 0 3 C0 2.01 0 1.02 0 0 Z " fill="#100F39" transform="translate(60,191)"/>
<path d="M0 0 C2.64 0.33 5.28 0.66 8 1 C7.67 1.66 7.34 2.32 7 3 C4.69 2.67 2.38 2.34 0 2 C0 1.34 0 0.68 0 0 Z " fill="#0F1039" transform="translate(121,161)"/>
<path d="M0 0 C0 0.66 0 1.32 0 2 C-3.4352048 4.29013653 -4.985331 4.17842973 -9 4 C-6.43425105 1.43425105 -3.68548192 0 0 0 Z " fill="#17173A" transform="translate(91,28)"/>
<path d="" fill="#FFFFFF" transform="translate(0,0)"/>
</svg>
